<svg xmlns="http://www.w3.org/2000/svg" xmlns:xlink="http://www.w3.org/1999/xlink" width="38" height="36" viewBox="0 0 38 36"><defs><path id="a" d="M374 3437v-3h36v3z"/><path id="b" d="M390 3432v-5h4v5z"/><path id="c" d="M392 3424v-23h9s.88 4.32-1 11c-1.52 5.41-4.05 12-8 12zm18.28-20c-.04.29-.13.62-.28 1-1.3 3.25-7 10-7 10l1.64-11z"/><path id="d" d="M384.14 3412c-1.84-6.68-.98-11-.98-11H392v23c-3.74 0-6.36-6.59-7.86-12zm-10.14-7a3.84 3.84 0 0 1-.26-1h5.83l2.43 11s-6.72-6.75-8-10z"/></defs><desc>Generated with Avocode.</desc><g transform="translate(-373 -3401)"><use fill="#fff" xlink:href="#a"/></g><g transform="translate(-373 -3401)"><use fill="#fff" xlink:href="#b"/></g><g transform="translate(-373 -3401)"><use fill="#fff" xlink:href="#c"/></g><g transform="translate(-373 -3401)"><use fill="#fff" xlink:href="#d"/></g></svg>