<?xml version="1.0" encoding="utf-8"?>
<svg version="1.1" id="Layer_1" xmlns="http://www.w3.org/2000/svg" x="0px" y="0px"
	 width="54.3px" height="52px" viewBox="0 0 54.3 52" fill="#00cbd5"  style="enable-background:new 0 0 54.3 52;" xml:space="preserve">
<g>
	<path d="M5.7,44.6c-0.2,0-0.3,0-0.5-0.1c-0.6-0.1-1.1-0.6-1.4-1.2c-0.9-1.7-1.7-3-1.7-3l-0.3-0.5l0,0
		c-0.3-0.5-0.8-1.4-1.4-2.5c-0.4-0.6-0.5-1.3-0.3-1.9c0.3-0.9,1.2-1.4,1.2-1.4c0,0,1.7-0.9,8.9-5c7.1-4,11.9-15.1,11.9-15.3l0.4-0.9
		l6.7,12.1l6.9,11.8l-1-0.1C35,36.6,23,35,15.9,39.1C8.7,43.2,7,44.2,7,44.2C7,44.2,6.4,44.6,5.7,44.6z M3,39.8
		c0.2,0.3,0.8,1.4,1.7,3c0.2,0.4,0.5,0.6,0.8,0.7c0.5,0.1,1-0.2,1.1-0.2c0.1,0,1.7-1,8.9-5.1c6.2-3.5,15.7-3,18.9-2.7l-5.9-10.1
		l-5.7-10.3c-1.3,2.8-5.7,11.3-12,14.8c-7.2,4.1-8.9,5-8.9,5c0,0-0.6,0.3-0.7,0.8c-0.1,0.3,0,0.7,0.2,1.1C2.1,38.3,2.8,39.5,3,39.8
		L3,39.8z"/>
</g>
<g>
	<polygon points="16.4,52 7.6,43.4 8.3,42.7 16.5,50.8 21,48.5 13.8,39.8 14.5,39.2 22.5,48.8 	"/>
</g>
<g>
	<path d="M42.2,17.9c-2-3.4-5.3-5.7-8.8-6.6l-1.7,6.6c1.9,0.5,3.6,1.7,4.6,3.5c1.1,1.8,1.3,3.9,0.8,5.7l6.6,1.7
		C44.6,25.3,44.2,21.3,42.2,17.9"/>
</g>
<g>
	<path d="M53.4,31.8l-1-0.3c1.7-6.5,0.8-13.3-2.6-19l0.9-0.5C54.2,18,55.2,25,53.4,31.8z"/>
</g>
<g>
	<path d="M49.8,12.5C46.4,6.7,41,2.6,34.4,1l0.2-1c6.8,1.7,12.5,6,16,12L49.8,12.5z"/>
</g>
<g>
	<rect x="12.5" y="28.8" transform="matrix(0.8696 -0.4937 0.4937 0.8696 -15.1239 10.8849)" width="1" height="10.5"/>
</g>
<g>
	<rect x="25.5" y="16.8" transform="matrix(0.8696 -0.4937 0.4937 0.8696 -9.9315 16.3499)" width="1" height="20.4"/>
</g>
</svg>
