<svg xmlns="http://www.w3.org/2000/svg" xmlns:xlink="http://www.w3.org/1999/xlink" width="49" height="37" viewBox="0 0 49 37"><defs><path id="a" d="M394 2322s-.96 17.77-21 23"/><path id="b" d="M404 2322s-6.34 22-31 22"/><path id="c" d="M404.84 2322.12S406.55 2342 421 2342"/><path id="d" d="M395 2322.12s2.85 19.88 25 19.88"/><path id="e" d="M372 2358v-5h19v-9h1l-.06-22h3.12v1.88l.94 1.12h4l.85-1.12V2322H404v22h1v9h15v5zm29-10l-1-1h-4l-1 1v5h6zm0-10l-1-1h-4l-1 1v6l1 1h4l1-1zm0-10l-1-2h-4l-1 2v6l1 1h4l1-1z"/><clipPath id="f"><use fill="#fff" xlink:href="#a"/></clipPath><clipPath id="g"><use fill="#fff" xlink:href="#b"/></clipPath><clipPath id="h"><use fill="#fff" xlink:href="#c"/></clipPath><clipPath id="i"><use fill="#fff" xlink:href="#d"/></clipPath></defs><desc>Generated with Avocode.</desc><g transform="translate(-372 -2321)"><use fill="#fff" xlink:href="#e"/></g><g opacity=".5" transform="translate(-372 -2321)"><use fill="#fff" fill-opacity="0" stroke="#fff" stroke-miterlimit="50" stroke-width="4" clip-path="url(&quot;#f&quot;)" xlink:href="#a"/></g><g opacity=".5" transform="translate(-372 -2321)"><use fill="#fff" fill-opacity="0" stroke="#fff" stroke-miterlimit="50" stroke-width="4" clip-path="url(&quot;#g&quot;)" xlink:href="#b"/></g><g opacity=".5" transform="translate(-372 -2321)"><use fill="#fff" fill-opacity="0" stroke="#fff" stroke-miterlimit="50" stroke-width="4" clip-path="url(&quot;#h&quot;)" xlink:href="#c"/></g><g opacity=".5" transform="translate(-372 -2321)"><use fill="#fff" fill-opacity="0" stroke="#fff" stroke-miterlimit="50" stroke-width="4" clip-path="url(&quot;#i&quot;)" xlink:href="#d"/></g></svg>