<svg xmlns="http://www.w3.org/2000/svg" xmlns:xlink="http://www.w3.org/1999/xlink" width="48" height="36" viewBox="0 0 48 36"><defs><path id="a" d="M381 4073v-12.07l8.16-1.93 4.84 7.72v6.28z"/><path id="b" d="M370 4068v-6.9l6.1-1.1 2.9 4.41v3.59z"/><path id="c" d="M418 4068v-6.9l-6.1-1.1-2.9 4.41v3.59z"/><path id="d" d="M407 4073v-12.07l-8.16-1.93-4.84 7.72v6.28z"/><path id="e" d="M394 4037c4.42 0 8 3.64 8 8.12 0 4.49-3.58 11.88-8 11.88s-8-7.39-8-11.88a8.06 8.06 0 0 1 8-8.12z"/><path id="f" d="M410 4046c2.76 0 5 2.18 5 4.87 0 2.7-2.24 7.13-5 7.13s-5-4.43-5-7.13a4.94 4.94 0 0 1 5-4.87z"/><path id="g" d="M378 4046c2.76 0 5 2.18 5 4.87 0 2.7-2.24 7.13-5 7.13s-5-4.43-5-7.13a4.94 4.94 0 0 1 5-4.87z"/></defs><desc>Generated with Avocode.</desc><g transform="translate(-370 -4037)"><use fill="#fff" xlink:href="#a"/></g><g transform="translate(-370 -4037)"><use fill="#fff" xlink:href="#b"/></g><g transform="translate(-370 -4037)"><use fill="#fff" xlink:href="#c"/></g><g transform="translate(-370 -4037)"><use fill="#fff" xlink:href="#d"/></g><g transform="translate(-370 -4037)"><use fill="#fff" xlink:href="#e"/></g><g transform="translate(-370 -4037)"><use fill="#fff" xlink:href="#f"/></g><g transform="translate(-370 -4037)"><use fill="#fff" xlink:href="#g"/></g></svg>