<?xml version="1.0" encoding="utf-8"?>
<svg version="1.1" id="Layer_1" xmlns="http://www.w3.org/2000/svg" x="0px" y="0px"
	 viewBox="0 0 36 36" style="enable-background:new 0 0 36 36;" xml:space="preserve">
<g>
	<g>
		<path d="M18,0v18h18V0H18z M22,15c-0.6,0-1-0.4-1-1s0.4-1,1-1s1,0.4,1,1S22.6,15,22,15z M22,5c-0.6,0-1-0.4-1-1
			s0.4-1,1-1s1,0.4,1,1S22.6,5,22,5z M27,10c-0.6,0-1-0.4-1-1s0.4-1,1-1s1,0.4,1,1S27.6,10,27,10z M32,15c-0.6,0-1-0.4-1-1
			s0.4-1,1-1s1,0.4,1,1S32.6,15,32,15z M32,5c-0.6,0-1-0.4-1-1s0.4-1,1-1s1,0.4,1,1S32.6,5,32,5z M0,36h18V18H0V36z M14,21
			c0.6,0,1,0.4,1,1s-0.4,1-1,1s-1-0.4-1-1S13.4,21,14,21z M9,26c0.6,0,1,0.4,1,1s-0.4,1-1,1s-1-0.4-1-1S8.4,26,9,26z M4,31
			c0.6,0,1,0.4,1,1s-0.4,1-1,1s-1-0.4-1-1S3.4,31,4,31z"/>
	</g>
</g>
</svg>
