<svg xmlns="http://www.w3.org/2000/svg" viewBox="0 0 22.08 40.64">
    <title>Farming</title>
    <g data-name="Layer 2">
        <g data-name="Layer 5">
            <rect x="9.41" width="3.27" height="40.64"/>
            <polygon points="0 25.46 6.44 31.16 6.44 40.42 0 34.73 0 25.46"/>
            <polygon points="22.08 25.46 15.63 31.16 15.63 40.42 22.08 34.73 22.08 25.46"/>
            <polygon points="0 13.24 6.44 18.94 6.44 28.2 0 22.51 0 13.24"/>
            <polygon points="22.08 13.24 15.63 18.94 15.63 28.2 22.08 22.51 22.08 13.24"/>
            <polygon points="0 1.03 6.44 6.72 6.44 15.99 0 10.29 0 1.03"/>
            <polygon points="22.08 1.03 15.63 6.72 15.63 15.99 22.08 10.29 22.08 1.03"/>
        </g>
    </g>
</svg>