<svg xmlns="http://www.w3.org/2000/svg" viewBox="0 0 39.27 39.27">
    <title>Gambling</title>
    <g data-name="Layer 2">
        <g data-name="Layer 1">
            <path d="M19.63,0V19.63H39.27V0ZM24,16.36a1.09,1.09,0,1,1,1.09-1.09A1.09,1.09,0,0,1,24,16.36ZM24,5.45a1.09,1.09,0,1,1,1.09-1.09A1.09,1.09,0,0,1,24,5.45Zm5.45,5.45a1.09,1.09,0,1,1,1.09-1.09,1.09,1.09,0,0,1-1.09,1.09h0Zm5.45,5.45A1.09,1.09,0,1,1,36,15.27a1.09,1.09,0,0,1-1.1,1.08h0Zm0-10.91A1.09,1.09,0,1,1,36,4.36a1.09,1.09,0,0,1-1.1,1.08h0ZM0,39.27H19.63V19.63H0ZM15.27,22.91A1.09,1.09,0,1,1,14.18,24a1.09,1.09,0,0,1,1.09-1.09ZM9.82,28.36a1.09,1.09,0,1,1-1.09,1.09,1.09,1.09,0,0,1,1.09-1.09ZM4.36,33.81A1.09,1.09,0,1,1,3.27,34.9a1.09,1.09,0,0,1,1.09-1.09Z"/>
        </g>
    </g>
</svg>