<svg xmlns="http://www.w3.org/2000/svg" viewBox="0 0 38.46 40.64">
    <defs></defs>
    <g>
        <g>
            <polygon points="8.9 0 8.9 3.14 30.87 3.14 30.87 37.56 35.32 37.56 35.32 37.56 38.46 37.56 38.46 0 8.9 0"/>
            <path d="M0,6.43V40.64H27.72V6.43ZM7.16,32.52H4.87V30.24H7.16Zm0-5.23H4.87V25H7.16Zm0-5.23H4.87V19.78H7.16Zm0-5.23H4.87V14.55H7.16Zm5.23,15.69H10.1V30.24h2.28Zm0-5.23H10.1V25h2.28Zm0-5.23H10.1V19.78h2.28Zm0-5.23H10.1V14.55h2.28Zm5.23,15.69H15.34V30.24h2.28Zm0-5.23H15.34V25h2.28Zm0-5.23H15.34V19.78h2.28Zm0-5.23H15.34V14.55h2.28Zm5.23,15.69H20.57V30.24h2.28Zm0-5.23H20.57V25h2.28Zm0-5.23H20.57V19.78h2.28Zm0-5.23H20.57V14.55h2.28Z"/>
        </g>
    </g>
</svg>