<svg xmlns="http://www.w3.org/2000/svg" viewBox="0 0 40.04 38.96">
    <title>Insurance</title>
    <g data-name="Layer 2">
        <g data-name="Layer 5">
            <path d="M20,0A20.31,20.31,0,0,0,0,17a7.55,7.55,0,0,1,4.78-1.73A7.54,7.54,0,0,1,8.59,16.3a7.4,7.4,0,0,1,7.62,0A7.54,7.54,0,0,1,20,15.24a8.86,8.86,0,0,1,2.54.48,8.1,8.1,0,0,1,1.27.58,7.39,7.39,0,0,1,7.62,0A7.44,7.44,0,0,1,40,17,20.31,20.31,0,0,0,20,0Z"/>
            <path d="M28.66,30.84v1.52a3.56,3.56,0,0,1-7.12,0V20h-3V32.36a6.6,6.6,0,0,0,13.2,0V30.84Z"/>
        </g>
    </g>
</svg>