<svg xmlns="http://www.w3.org/2000/svg" viewBox="0 0 35.2 38.91">    <title>Social        project_1    </title>    <g data-name="Layer 2">        <g data-name="Layer 5">            <path d="M17.8,36.91l-.14.17-.14.17a.65.65,0,0,1-.28.23l-.14.17c-1,.87-1.51,1.64-2.53,1.08a3.57,3.57,0,0,1-1.39-.67L3.72,30.41l-.06,0A3.48,3.48,0,0,1,2,27.74L0,9.21c-.21-2,.4-3.45,2.37-3.61a3.55,3.55,0,0,1,4,3.2L7.94,17,20.14,1.89C21.4.33,22.67-.67,24.17.54s.57,2.49-.69,4l-5.94,7.35,1.11.9,7.74-9.58c1.26-1.56,2.47-2.6,4-1.34s.62,2.53-.64,4.09l-7.74,9.58,1.11.9,5.94-7.35C30.37,7.57,31.47,6.44,33,7.7s.12,2.13-1.14,3.68l-5.94,7.35,1.11.9c.06,0,4.5-5.57,4.5-5.57a2.11,2.11,0,0,1,3.11-.43c1.06.86.32,1.54-.42,2.79-.17.32-5,6.18-5.22,6.46L17.79,36.81A.07.07,0,0,1,17.8,36.91Z"/>        </g>    </g></svg>