<svg xmlns="http://www.w3.org/2000/svg" xmlns:xlink="http://www.w3.org/1999/xlink" width="44" height="36" viewBox="0 0 44 36"><defs><path id="a" d="M375 2553a4 4 0 1 1 0 8 4 4 0 0 1 0-8z"/><path id="b" d="M404 2564l-29-6"/><path id="c" d="M404 2564l-29 22"/><path id="d" d="M375 2558l3 24"/><path id="f" d="M378 2575a7 7 0 1 1 0 14 7 7 0 0 1 0-14z"/><path id="j" d="M404 2553a11 11 0 1 1 0 22 11 11 0 0 1 0-22z"/><clipPath id="e"><use fill="#fff" xlink:href="#a"/></clipPath><clipPath id="g"><use fill="#fff" xlink:href="#b"/></clipPath><clipPath id="h"><use fill="#fff" xlink:href="#c"/></clipPath><clipPath id="i"><use fill="#fff" xlink:href="#d"/></clipPath></defs><desc>Generated with Avocode.</desc><g transform="translate(-371 -2553)"><use fill="#fff" fill-opacity="0" stroke="#fff" stroke-miterlimit="50" stroke-width="12" clip-path="url(&quot;#e&quot;)" xlink:href="#a"/></g><g transform="translate(-371 -2553)"><use fill="#fff" xlink:href="#f"/></g><g transform="translate(-371 -2553)"><use fill="#fff" fill-opacity="0" stroke="#fff" stroke-miterlimit="50" stroke-width="4" clip-path="url(&quot;#g&quot;)" xlink:href="#b"/></g><g transform="translate(-371 -2553)"><use fill="#fff" fill-opacity="0" stroke="#fff" stroke-miterlimit="50" stroke-width="4" clip-path="url(&quot;#h&quot;)" xlink:href="#c"/></g><g transform="translate(-371 -2553)"><use fill="#fff" fill-opacity="0" stroke="#fff" stroke-miterlimit="50" stroke-width="4" clip-path="url(&quot;#i&quot;)" xlink:href="#d"/></g><g transform="translate(-371 -2553)"><use fill="#fff" xlink:href="#j"/></g></svg>