<svg xmlns="http://www.w3.org/2000/svg" xmlns:xlink="http://www.w3.org/1999/xlink" width="116" height="118" viewBox="0 0 116 118"><defs><path id="a" d="M839 867c7.18 0 13 9.85 13 22s-5.82 22-13 22-13-9.85-13-22 5.82-22 13-22z"/><path id="b" d="M839 876c12.15 0 22 5.82 22 13s-9.85 13-22 13-22-5.82-22-13 9.85-13 22-13z"/><path id="c" d="M839 871a18 18 0 1 1 0 36 18 18 0 0 1 0-36z"/><path id="f" d="M821 889h36"/><path id="g" d="M839 871v36"/><clipPath id="d"><use fill="#fff" xlink:href="#a"/></clipPath><clipPath id="e"><use fill="#fff" xlink:href="#b"/></clipPath></defs><g transform="translate(-781 -830)"><use fill="#fff" xlink:href="#c"/><use fill="#fff" fill-opacity="0" stroke="#2d3a4d" stroke-miterlimit="50" stroke-width="8" clip-path="url(&quot;#d&quot;)" xlink:href="#a"/><use fill="#fff" fill-opacity="0" stroke="#2d3a4d" stroke-miterlimit="50" stroke-width="8" clip-path="url(&quot;#e&quot;)" xlink:href="#b"/><g><use fill="#fff" fill-opacity="0" stroke="#2d3a4d" stroke-miterlimit="50" stroke-width="4" xlink:href="#f"/></g><g><use fill="#fff" fill-opacity="0" stroke="#2d3a4d" stroke-miterlimit="50" stroke-width="4" xlink:href="#g"/></g></g></svg>