<svg xmlns="http://www.w3.org/2000/svg" xmlns:xlink="http://www.w3.org/1999/xlink" width="32" height="46" viewBox="0 0 32 46"><defs><path id="a" d="M.78 2658.19a2.81 2.81 0 0 1 2.78 2.84 2.82 2.82 0 0 1-2.78 2.85 2.82 2.82 0 0 1-2.78-2.85 2.81 2.81 0 0 1 2.78-2.84z"/><path id="b" d="M30 2661c0-8.98-3.06-17.11-8-23l-9.11 10.94c2.6 3.08 4.2 7.35 4.2 12.06 0 4.71-1.6 8.98-4.2 12.06l9.12 10.94c4.93-5.89 7.99-14.02 7.99-23z"/></defs><desc>Generated with Avocode.</desc><g transform="translate(2 -2638)"><use fill="#fff" xlink:href="#a"/></g><g transform="translate(2 -2638)"><use fill="#fff" xlink:href="#b"/></g></svg>