<svg xmlns="http://www.w3.org/2000/svg" xmlns:xlink="http://www.w3.org/1999/xlink" width="36" height="36" viewBox="0 0 36 36"><defs><path id="a" d="M838 4038a18 18 0 1 1 0 36 18 18 0 0 1 0-36z"/><path id="b" d="M838 4048a8 8 0 1 1 0 16 8 8 0 0 1 0-16z"/><path id="c" d="M823.57 4042.56l9.9 9.9"/><path id="d" d="M840.54 4059.53l9.9 9.91"/><path id="e" d="M851.14 4043.27l-9.9 9.9"/><path id="f" d="M834.17 4060.24l-9.9 9.9"/></defs><desc>Generated with Avocode.</desc><g transform="translate(-820 -4038)"><use fill="#fff" xlink:href="#a"/></g><g transform="translate(-820 -4038)"><use fill="#00cbd5" xlink:href="#b"/></g><g transform="translate(-820 -4038)"><use fill="#fff" fill-opacity="0" stroke="#00cbd5" stroke-miterlimit="50" stroke-width="4" xlink:href="#c"/></g><g transform="translate(-820 -4038)"><use fill="#fff" fill-opacity="0" stroke="#00cbd5" stroke-miterlimit="50" stroke-width="4" xlink:href="#d"/></g><g transform="translate(-820 -4038)"><use fill="#fff" fill-opacity="0" stroke="#00cbd5" stroke-miterlimit="50" stroke-width="4" xlink:href="#e"/></g><g transform="translate(-820 -4038)"><use fill="#fff" fill-opacity="0" stroke="#00cbd5" stroke-miterlimit="50" stroke-width="4" xlink:href="#f"/></g></svg>