<svg xmlns="http://www.w3.org/2000/svg" xmlns:xlink="http://www.w3.org/1999/xlink" width="30" height="37" viewBox="0 0 30 37"><defs><path id="a" d="M822 2589l-3-12.07 10.16-1.93 4.84 7.72v6.28z"/><path id="b" d="M847 2589l2-12.07-10.16-1.93-4.84 7.72v6.28z"/><path id="c" d="M836 2553s5.58.91 6.67 9c1.1 8.09-.95 11-.95 11l-4.77-3s-3.15-6.96-5.95-11c-4.96-7.17 5-6 5-6z"/><path id="d" d="M832 2554s-.94-.85-2.15-.15c-1.79 1.04-4.16 3.31-4.85 8.15-1.15 8.09 1 11 1 11l5-3z"/><path id="e" d="M832.29 2560.11a5.01 5.01 0 0 0 3.42 2.98c3.87 1.13 4.29-1.19 4.29-.09 0 4.45-3.5 10-6 10-2.2 0-6-6.45-6-10.9 0-.01.55-.53 2-1.1.55-.22 2.25-.96 2.29-.89z"/></defs><desc>Generated with Avocode.</desc><g transform="translate(-819 -2552)"><use fill="#fff" xlink:href="#a"/></g><g transform="translate(-819 -2552)"><use fill="#fff" xlink:href="#b"/></g><g transform="translate(-819 -2552)"><use fill="#fff" xlink:href="#c"/></g><g transform="translate(-819 -2552)"><use fill="#fff" xlink:href="#d"/></g><g transform="translate(-819 -2552)"><use fill="#00cbd5" xlink:href="#e"/></g></svg>