<svg xmlns="http://www.w3.org/2000/svg" viewBox="0 0 41.04 40.59">
    <defs></defs>
    <g>
        <g>
            <path d="M39.21,38.87s-.27-.81-1.38-4.48a5,5,0,0,0-4.61,4.48,36,36,0,0,0,4.61,1.65C39.77,41,39.21,38.87,39.21,38.87Z"/>
            <polygon
                    points="41.04 7.37 33.66 0 20.98 12.68 20.97 12.67 12.11 21.52 12.13 21.54 0.45 33.22 7.82 40.59 19.42 29 28.15 37.93 29.3 34.16 32.53 32.98 33.45 30.15 36.91 28.97 28.27 20.14 41.04 7.37"/>
            <path d="M18.87,10.52,8.79.22S5.64-.33,2.57,2.81A7.9,7.9,0,0,0,0,9.17L10,19.38Z"/>
        </g>
    </g>
</svg>