<svg xmlns="http://www.w3.org/2000/svg" viewBox="0 0 40.15 40.16">
    <title>IoT</title>
    <g data-name="Layer 2">
        <g data-name="Layer 5">
            <path d="M32.41,18h7.74A20.18,20.18,0,0,0,22.36,0V7.87A12.61,12.61,0,0,1,32.41,18Z"/>
            <path d="M32.46,22.16A12.6,12.6,0,0,1,22.36,32.62v7.5a20.18,20.18,0,0,0,17.79-18Z"/>
            <path d="M7.55,22H0A20.18,20.18,0,0,0,18.17,40.16V32.69A12.59,12.59,0,0,1,7.55,22Z"/>
            <path d="M0,17.84h7.6A12.61,12.61,0,0,1,18.17,7.79V0A20.17,20.17,0,0,0,0,17.84Z"/>
            <circle cx="20.07" cy="20.08" r="2.75"/>
        </g>
    </g>
</svg>