<?xml version="1.0" encoding="utf-8"?>
<svg version="1.1" xmlns="http://www.w3.org/2000/svg" x="0px" y="0px"
	 width="13.8px" height="12px" viewBox="0 0 13.8 12" style="enable-background:new 0 0 13.8 12;" xml:space="preserve">
<style type="text/css">
	.st0{fill:#2FAAE1;}
</style>
<g>
	<g>
		<path d="M13.6,0.3C13,0.6,12.4,0.9,11.7,1c-0.5-0.6-1.3-1-2.1-1C8.1,0,6.8,1.3,6.8,3c0,0.3,0,0.4,0.1,0.7
			C4.5,3.7,2.4,2.4,1,0.6C0.7,1,0.6,1.6,0.6,2.1c0,1,0.5,2,1.3,2.5C1.5,4.6,1,4.4,0.6,4.3l0,0c0,1.5,1,2.7,2.3,3
			C2.6,7.3,2.3,7.3,2.1,7.3c-0.2,0-0.3,0-0.5-0.1C1.9,8.4,3,9.3,4.3,9.3c-1,0.8-2.2,1.3-3.6,1.3c-0.3,0-0.4,0-0.7,0
			C1.3,11.5,2.8,12,4.3,12c5.2,0,8.1-4.6,8.1-8.5c0-0.1,0-0.3,0-0.3c0.5-0.4,1-1,1.4-1.6c-0.5,0.3-1,0.4-1.7,0.4
			C12.9,1.6,13.3,1,13.6,0.3z"/>
	</g>
</g>
</svg>
